<?xml version="1.0" encoding="utf-8"?>
<!-- Svg Vector Icons : http://www.onlinewebfonts.com/icon -->
<!DOCTYPE svg PUBLIC "-//W3C//DTD SVG 1.1//EN" "http://www.w3.org/Graphics/SVG/1.1/DTD/svg11.dtd">
<svg version="1.1" xmlns="http://www.w3.org/2000/svg" xmlns:xlink="http://www.w3.org/1999/xlink" x="0px" y="0px" viewBox="0 0 1000 1000" enable-background="new 0 0 1000 1000" xml:space="preserve">
<metadata> Svg Vector Icons : http://www.onlinewebfonts.com/icon </metadata>
<g><g transform="matrix(1 0 0 -1 0 480)"><path d="M163.1,98.7v340.7c0,8.9-2.9,16.3-8.6,22s-13.1,8.6-22,8.6s-16.3-2.9-22-8.6s-8.6-13.1-8.6-22V98.7c-26.8-6.4-48.8-20.7-66-43.1S10,8.1,10-20c0-28.1,8.6-53.3,25.8-75.6s39.2-36.7,66-43.1v-340.7c0-8.9,2.9-16.3,8.6-22s13.1-8.6,22-8.6s16.3,2.9,22,8.6s8.6,13.1,8.6,22v340.7c26.8,6.4,48.8,20.7,66,43.1S255-48.1,255-20c0,28.1-8.6,53.3-25.8,75.6S189.9,92.3,163.1,98.7z M132.5-81.3L132.5-81.3c-16.6,0-30.9,6.1-43.1,18.2S71.3-36.6,71.3-20c0,16.6,6.1,30.9,18.2,43.1s26.5,18.2,43.1,18.2l0,0c16.6,0,30.9-6.1,43.1-18.2S193.8-3.4,193.8-20c0-16.6-6.1-30.9-18.2-43.1S149.1-81.3,132.5-81.3z M530.6-85.1v524.5c0,8.9-2.9,16.3-8.6,22s-13.1,8.6-22,8.6c-8.9,0-16.3-2.9-22-8.6s-8.6-13.1-8.6-22V-85.1c-26.8-6.4-48.8-20.7-66-43.1s-25.8-47.5-25.8-75.6s8.6-53.3,25.8-75.6s39.2-36.7,66-43.1v-157c0-8.9,2.9-16.3,8.6-22s13.1-8.6,22-8.6c8.9,0,16.3,2.9,22,8.6s8.6,13.1,8.6,22v157c26.8,6.4,48.8,20.7,66,43.1s25.8,47.5,25.8,75.6s-8.6,53.3-25.8,75.6S557.4-91.5,530.6-85.1z M500-265L500-265c-16.6,0-30.9,6.1-43.1,18.2s-18.2,26.5-18.2,43.1s6.1,30.9,18.2,43.1s26.5,18.2,43.1,18.2l0,0c16.6,0,30.9-6.1,43.1-18.2s18.2-26.5,18.2-43.1s-6.1-30.9-18.2-43.1S516.6-265,500-265z M898.1,282.4v157c0,8.9-2.9,16.3-8.6,22s-13.1,8.6-22,8.6s-16.3-2.9-22-8.6s-8.6-13.1-8.6-22v-157c-26.8-6.4-48.8-20.7-66-43.1S745,191.8,745,163.8s8.6-53.3,25.8-75.6s39.2-36.7,66-43.1v-524.5c0-8.9,2.9-16.3,8.6-22s13.1-8.6,22-8.6s16.3,2.9,22,8.6s8.6,13.1,8.6,22V45.1c26.8,6.4,48.8,20.7,66,43.1s25.8,47.5,25.8,75.6s-8.6,53.3-25.8,75.6S924.9,276,898.1,282.4z M867.5,102.5L867.5,102.5c-16.6,0-30.9,6.1-43.1,18.2c-12.1,12.1-18.2,26.5-18.2,43.1s6.1,30.9,18.2,43.1s26.5,18.2,43.1,18.2l0,0c16.6,0,30.9-6.1,43.1-18.2s18.2-26.5,18.2-43.1s-6.1-30.9-18.2-43.1C898.4,108.6,884.1,102.5,867.5,102.5z"/></g></g>
</svg>