<?xml version="1.0" encoding="UTF-8" standalone="no"?>
<!-- Created with Inkscape (http://www.inkscape.org/) -->

<svg
   xmlns:osb="http://www.openswatchbook.org/uri/2009/osb"
   xmlns:dc="http://purl.org/dc/elements/1.1/"
   xmlns:cc="http://creativecommons.org/ns#"
   xmlns:rdf="http://www.w3.org/1999/02/22-rdf-syntax-ns#"
   xmlns:svg="http://www.w3.org/2000/svg"
   xmlns="http://www.w3.org/2000/svg"
   xmlns:sodipodi="http://sodipodi.sourceforge.net/DTD/sodipodi-0.dtd"
   xmlns:inkscape="http://www.inkscape.org/namespaces/inkscape"
   width="305mm"
   height="100mm"
   viewBox="0 0 305 100"
   version="1.1"
   id="svg3719"
   sodipodi:docname="silk.svg"
   inkscape:version="0.92.5 (2060ec1f9f, 2020-04-08)">
  <defs
     id="defs3713">
    <linearGradient
       id="linearGradient6574"
       osb:paint="solid">
      <stop
         style="stop-color:#020000;stop-opacity:1;"
         offset="0"
         id="stop6572" />
    </linearGradient>
  </defs>
  <sodipodi:namedview
     id="base"
     pagecolor="#ffffff"
     bordercolor="#666666"
     borderopacity="1.0"
     inkscape:pageopacity="0.0"
     inkscape:pageshadow="2"
     inkscape:zoom="1.8101934"
     inkscape:cx="880.91253"
     inkscape:cy="76.080524"
     inkscape:document-units="mm"
     inkscape:current-layer="g6945"
     showgrid="false"
     width="100mm"
     inkscape:window-width="2488"
     inkscape:window-height="1376"
     inkscape:window-x="72"
     inkscape:window-y="27"
     inkscape:window-maximized="1"
     showguides="false" />
  <metadata
     id="metadata3716">
    <rdf:RDF>
      <cc:Work
         rdf:about="">
        <dc:format>image/svg+xml</dc:format>
        <dc:type
           rdf:resource="http://purl.org/dc/dcmitype/StillImage" />
        <dc:title></dc:title>
      </cc:Work>
    </rdf:RDF>
  </metadata>
  <g
     inkscape:label="F.SilkS"
     inkscape:groupmode="layer"
     id="layer1"
     transform="translate(0,-197)">
    <g
       id="g3825"
       transform="matrix(0.26458333,0,0,0.26458333,125.60905,148.44213)">
      <g
         id="g3823"
         transform="matrix(1,0,0,-1,0,480)">
        <g
           aria-label="Fader65"
           transform="matrix(1,0,0,-1,-667.68202,305.56557)"
           style="font-style:normal;font-weight:normal;font-size:40px;line-height:1.25;font-family:sans-serif;letter-spacing:0px;word-spacing:0px;fill:#000000;fill-opacity:1;stroke:none"
           id="flowRoot3836">
          <path
             d="m 403.57227,144.91016 q 0,-3.51563 1.71875,-5.78125 2.10937,-2.03125 4.21875,-2.03125 h 43.04687 q 5.23438,0 5.23438,6.875 0,2.89062 -1.5625,4.45312 -1.79688,1.79688 -5,1.79688 h -33.75 v 37.57812 h 30.39062 q 2.89063,0 4.6875,1.79688 1.5625,1.71875 1.5625,4.92187 0,6.40625 -5.9375,6.40625 h -30.70312 v 43.67188 q 0,7.5 -7.03125,7.5 -2.57813,0 -4.60938,-1.875 -2.26562,-1.95313 -2.26562,-5.3125 z"
             style="font-style:normal;font-variant:normal;font-weight:normal;font-stretch:normal;font-size:160px;font-family:UnDinaru;-inkscape-font-specification:'UnDinaru, Normal';font-variant-ligatures:normal;font-variant-caps:normal;font-variant-numeric:normal;font-feature-settings:normal;text-align:end;writing-mode:lr-tb;text-anchor:end"
             id="path6958"
             inkscape:connector-curvature="0" />
          <path
             d="m 478.72852,208.58203 q 0,18.59375 10.23437,26.875 5.46875,4.53125 12.34375,4.53125 12.8125,0 18.67188,-9.76562 5.3125,-8.4375 5.3125,-21.64063 0,-19.84375 -11.01563,-27.65625 -5.3125,-3.82812 -12.03125,-3.82812 -11.48437,0 -17.42187,9.14062 -2.73438,3.98438 -4.53125,9.84375 -1.5625,5.78125 -1.5625,12.5 z m 46.875,-36.79687 q 0.3125,-3.51563 2.10937,-5.07813 1.71875,-1.79687 4.45313,-1.79687 2.73437,0 4.76562,1.79687 1.79688,1.71875 1.79688,5.39063 v 72.8125 q 0,7.1875 -6.5625,7.1875 -2.73438,0 -4.6875,-1.875 -1.875,-1.95313 -1.875,-4.6875 v -6.25 q -9.60938,12.8125 -22.57813,12.8125 -17.73437,0 -28.4375,-13.125 -9.92187,-12.26563 -9.92187,-30.07813 0,-27.8125 19.53125,-39.14062 8.4375,-4.84375 17.10937,-4.84375 14.375,0 23.98438,11.5625 z"
             style="font-style:normal;font-variant:normal;font-weight:normal;font-stretch:normal;font-size:160px;font-family:UnDinaru;-inkscape-font-specification:'UnDinaru, Normal';font-variant-ligatures:normal;font-variant-caps:normal;font-variant-numeric:normal;font-feature-settings:normal;text-align:end;writing-mode:lr-tb;text-anchor:end"
             id="path6960"
             inkscape:connector-curvature="0" />
          <path
             d="m 567.79102,208.26953 q 0,12.5 4.92187,20.9375 5.9375,10.78125 17.34375,10.78125 16.79688,0 22.1875,-16.48437 2.57813,-6.71875 2.57813,-14.92188 0,-9.92187 -3.04688,-16.64062 -3.04687,-6.875 -8.28125,-10.85938 -5.46875,-3.98437 -12.1875,-3.98437 -7.8125,0 -12.96875,4.45312 -5.3125,4.45313 -7.8125,12.03125 -2.73437,7.8125 -2.73437,14.6875 z m 45.23437,-73.75 q 0.39063,-7.03125 6.95313,-7.03125 7.1875,0 7.1875,7.34375 v 110.07813 q 0,7.1875 -7.1875,7.1875 -2.57813,0 -4.6875,-2.03125 -2.26563,-2.26563 -2.26563,-5 v -4.45313 q -6.71875,11.48438 -21.5625,11.48438 -23.04687,0 -32.96875,-20.9375 -4.76562,-10.39063 -4.76562,-22.26563 0,-18.20312 10.07812,-31.01562 5.23438,-6.40625 11.32813,-9.60938 6.5625,-3.35937 14.53125,-3.35937 14.45312,0 23.04687,11.5625 z"
             style="font-style:normal;font-variant:normal;font-weight:normal;font-stretch:normal;font-size:160px;font-family:UnDinaru;-inkscape-font-specification:'UnDinaru, Normal';font-variant-ligatures:normal;font-variant-caps:normal;font-variant-numeric:normal;font-feature-settings:normal;text-align:end;writing-mode:lr-tb;text-anchor:end"
             id="path6962"
             inkscape:connector-curvature="0" />
          <path
             d="m 659.27539,171.16016 q 8.90625,-6.25 19.45313,-6.25 22.42187,0 32.65625,21.79687 4.84375,10.07813 4.84375,20.46875 0,6.875 -7.89063,6.875 h -53.125 q 0,16.32813 12.96875,22.89063 5.9375,3.04687 12.96875,3.04687 12.5,0 22.89063,-8.82812 3.04687,-2.57813 5.3125,-2.57813 4.92187,0 4.92187,5.9375 0,2.89063 -2.03125,5.15625 -5,5.54688 -14.76562,9.21875 -8.82813,3.20313 -17.10938,3.20313 -19.45312,0 -30.23437,-14.375 -5,-6.71875 -7.03125,-14.21875 -2.26563,-8.04688 -2.26563,-14.92188 l 0.15625,-0.625 q 0.15625,-10.54687 5.15625,-20.78125 4.76563,-10.23437 13.125,-16.01562 z m -4.0625,32.1875 h 46.875 q 0,-11.40625 -6.01562,-18.90625 -5.9375,-7.34375 -16.71875,-7.34375 -10.70313,0 -17.03125,6.875 -7.10938,7.5 -7.10938,19.375 z"
             style="font-style:normal;font-variant:normal;font-weight:normal;font-stretch:normal;font-size:160px;font-family:UnDinaru;-inkscape-font-specification:'UnDinaru, Normal';font-variant-ligatures:normal;font-variant-caps:normal;font-variant-numeric:normal;font-feature-settings:normal;text-align:end;writing-mode:lr-tb;text-anchor:end"
             id="path6964"
             inkscape:connector-curvature="0" />
          <path
             d="m 729.74414,172.41016 q 0,-3.20313 2.03125,-5.23438 2.1875,-1.95312 4.84375,-1.95312 3.04688,0 4.92188,1.95312 2.10937,1.5625 2.10937,5.23438 v 7.26562 q 4.29688,-6.5625 8.51563,-10.07812 5.39062,-4.6875 10.70312,-4.6875 3.35938,0 5.70313,1.95312 2.26562,2.1875 2.26562,5.23438 0,3.82812 -3.20312,5.78125 -1.25,1.09375 -6.5625,2.57812 -4.14063,0.78125 -6.09375,1.875 -11.32813,6.5625 -11.32813,21.32813 v 41.25 q 0,7.1875 -6.71875,7.1875 -2.89062,0 -4.92187,-2.03125 -2.26563,-1.95313 -2.26563,-5.46875 z"
             style="font-style:normal;font-variant:normal;font-weight:normal;font-stretch:normal;font-size:160px;font-family:UnDinaru;-inkscape-font-specification:'UnDinaru, Normal';font-variant-ligatures:normal;font-variant-caps:normal;font-variant-numeric:normal;font-feature-settings:normal;text-align:end;writing-mode:lr-tb;text-anchor:end"
             id="path6966"
             inkscape:connector-curvature="0" />
          <path
             d="m 819.82227,138.34766 q 2.73437,-2.26563 4.92187,-2.26563 2.57813,0 4.21875,2.10938 1.40625,2.1875 1.40625,4.84375 0,3.20312 -4.60937,7.34375 l -2.42188,2.03125 -4.45312,4.0625 q -6.09375,5.54687 -9.76563,11.79687 l -8.51562,13.75 q 9.76562,-4.60937 17.89062,-4.60937 9.14063,0 16.17188,5.9375 6.875,5.54687 9.92187,14.375 3.20313,8.67187 3.20313,18.04687 0,15.70313 -10.70313,26.25 -10.3125,10.07813 -24.45312,10.07813 -9.76563,0 -17.8125,-5.54688 -7.96875,-5.625 -11.95313,-14.60937 -4.53125,-9.60938 -4.53125,-18.04688 0,-1.64062 0.15625,-2.42187 l 0.70313,-8.82813 q 1.09375,-18.82812 15.15625,-37.42187 11.79687,-15.3125 25.46875,-26.875 z m -26.5625,71.25 -0.625,5.54687 q 0,9.29688 5.07812,16.32813 5.78125,7.5 14.92188,7.5 10.07812,0 15.15625,-7.03125 5.46875,-7.5 5,-17.89063 l -0.15625,-3.51562 q -0.3125,-9.60938 -5.78125,-15.54688 -4.76563,-5.39062 -13.28125,-5.39062 -7.96875,0 -13.59375,4.76562 -5.46875,4.76563 -6.71875,15.23438 z"
             style="font-style:normal;font-variant:normal;font-weight:normal;font-stretch:normal;font-size:160px;font-family:UnDinaru;-inkscape-font-specification:'UnDinaru, Normal';font-variant-ligatures:normal;font-variant-caps:normal;font-variant-numeric:normal;font-feature-settings:normal;text-align:end;writing-mode:lr-tb;text-anchor:end"
             id="path6968"
             inkscape:connector-curvature="0" />
          <path
             d="m 879.58789,143.34766 q 0.78125,-4.6875 1.48438,-5.625 0.46875,-0.625 3.67187,-0.625 h 40.3125 q 5.9375,0 5.9375,6.25 0,2.34375 -1.79687,4.14062 -1.40625,1.71875 -4.45313,1.71875 h -32.1875 l -4.76562,31.09375 q 7.1875,-3.20312 14.375,-3.20312 18.04687,0 26.25,17.73437 4.14062,9.14063 3.67187,17.57813 l -0.15625,3.35937 q 0,2.89063 -0.625,6.875 -0.85937,4.0625 -3.35937,9.45313 -3.20313,7.03125 -8.51563,11.40625 -10.39062,8.59375 -24.14062,8.59375 -6.40625,0 -13.59375,-2.03125 -7.57813,-2.10938 -12.57813,-6.09375 -4.92187,-3.98438 -6.32812,-10.54688 0,-2.26562 1.40625,-4.21875 1.48437,-1.71875 3.59375,-1.71875 3.67187,0 5.85937,2.73438 9.60938,9.0625 21.01563,9.0625 9.92187,0 16.09375,-7.03125 6.09375,-7.03125 6.09375,-16.79688 0,-17.10937 -9.45313,-22.73437 -4.45312,-2.5 -10.54687,-2.5 l -4.76563,0.46875 -6.875,1.875 q -0.46875,0.15625 -1.71875,0.54687 -1.17187,0.3125 -1.95312,0.625 -1.01563,0.3125 -4.0625,0.78125 -4.29688,0 -4.76563,-4.92187 l 0.3125,-2.10938 z"
             style="font-style:normal;font-variant:normal;font-weight:normal;font-stretch:normal;font-size:160px;font-family:UnDinaru;-inkscape-font-specification:'UnDinaru, Normal';font-variant-ligatures:normal;font-variant-caps:normal;font-variant-numeric:normal;font-feature-settings:normal;text-align:end;writing-mode:lr-tb;text-anchor:end"
             id="path6970"
             inkscape:connector-curvature="0" />
        </g>
        <flowRoot
           xml:space="preserve"
           id="flowRoot4016"
           style="font-style:normal;font-weight:normal;font-size:40px;line-height:1.25;font-family:sans-serif;letter-spacing:0px;word-spacing:0px;fill:#000000;fill-opacity:1;stroke:none"><flowRegion
             id="flowRegion4018"><rect
               id="rect4020"
               width="378.80719"
               height="141.42136"
               x="340.42142"
               y="98.140503" /></flowRegion><flowPara
             id="flowPara4022"></flowPara></flowRoot>      </g>
    </g>
    <g
       id="g6947"
       transform="matrix(0.05291667,0,0,0.05291667,208.98479,216.79553)">
      <g
         id="g6945"
         transform="matrix(1,0,0,-1,0,480)">
        <path
           id="path6981"
           d="m 132.5,-81.3 v 0 c -16.6,0 -30.9,6.1 -43.1,18.2 -12.2,12.1 -18.1,26.5 -18.1,43.1 0,16.6 6.1,30.9 18.2,43.1 12.1,12.2 26.5,18.2 43.1,18.2 v 0 c 16.6,0 30.9,-6.1 43.1,-18.2 12.2,-12.1 18.1,-26.5 18.1,-43.1 0,-16.6 -6.1,-30.9 -18.2,-43.1 -12.1,-12.2 -26.5,-18.2 -43.1,-18.2 z m 30.6,180 v 340.7 c 0,8.9 -2.9,16.3 -8.6,22 -5.7,5.7 -13.1,8.6 -22,8.6 -8.9,0 -16.3,-2.9 -22,-8.6 -5.7,-5.7 -8.6,-13.1 -8.6,-22 V 98.7 C 75.1,92.3 53.1,78 35.9,55.6 18.7,33.2 10,8.1 10,-20 c 0,-28.1 8.6,-53.3 25.8,-75.6 17.2,-22.3 39.2,-36.7 66,-43.1 v -340.7 c 0,-8.9 2.9,-16.3 8.6,-22 5.7,-5.7 13.1,-8.6 22,-8.6 8.9,0 16.3,2.9 22,8.6 5.7,5.7 8.6,13.1 8.6,22 v 340.7 c 26.8,6.4 48.8,20.7 66,43.1 17.2,22.4 26,47.5 26,75.6 0,28.1 -8.6,53.3 -25.8,75.6 -17.2,22.3 -39.3,36.7 -66.1,43.1 z"
           inkscape:connector-curvature="0" />
        <path
           id="path6977"
           d="m 500,-265 v 0 c -16.6,0 -30.9,6.1 -43.1,18.2 -12.2,12.1 -18.2,26.5 -18.2,43.1 0,16.6 6.1,30.9 18.2,43.1 12.1,12.2 26.5,18.2 43.1,18.2 v 0 c 16.6,0 30.9,-6.1 43.1,-18.2 12.2,-12.1 18.2,-26.5 18.2,-43.1 0,-16.6 -6.1,-30.9 -18.2,-43.1 C 531,-259 516.6,-265 500,-265 Z m 30.6,179.9 v 524.5 c 0,8.9 -2.9,16.3 -8.6,22 -5.7,5.7 -13.1,8.6 -22,8.6 -8.9,0 -16.3,-2.9 -22,-8.6 -5.7,-5.7 -8.6,-13.1 -8.6,-22 V -85.1 c -26.8,-6.4 -48.8,-20.7 -66,-43.1 -17.2,-22.4 -25.8,-47.5 -25.8,-75.6 0,-28.1 8.6,-53.3 25.8,-75.6 17.2,-22.3 39.2,-36.7 66,-43.1 v -157 c 0,-8.9 2.9,-16.3 8.6,-22 5.7,-5.7 13.1,-8.6 22,-8.6 8.9,0 16.3,2.9 22,8.6 5.7,5.7 8.6,13.1 8.6,22 v 157 c 26.8,6.4 48.8,20.7 66,43.1 17.2,22.4 25.8,47.5 25.8,75.6 0,28.1 -8.6,53.3 -25.8,75.6 -17.2,22.3 -39.2,36.7 -66,43.1 z"
           inkscape:connector-curvature="0" />
        <path
           id="path6943"
           d="m 867.5,102.5 v 0 c -16.6,0 -30.9,6.1 -43.1,18.2 -12.1,12.1 -18.2,26.5 -18.2,43.1 0,16.6 6.1,30.9 18.2,43.1 12.1,12.2 26.5,18.2 43.1,18.2 v 0 c 16.6,0 30.9,-6.1 43.1,-18.2 12.2,-12.1 18.2,-26.5 18.2,-43.1 0,-16.6 -6.1,-30.9 -18.2,-43.1 -12.2,-12.1 -26.5,-18.2 -43.1,-18.2 z m 30.6,179.9 v 157 c 0,8.9 -2.9,16.3 -8.6,22 -5.7,5.7 -13.1,8.6 -22,8.6 -8.9,0 -16.3,-2.9 -22,-8.6 -5.7,-5.7 -8.6,-13.1 -8.6,-22 v -157 C 810.1,276 788.1,261.7 770.9,239.3 753.7,216.9 745,191.8 745,163.8 c 0,-28 8.6,-53.3 25.8,-75.6 17.2,-22.3 39.2,-36.7 66,-43.1 v -524.5 c 0,-8.9 2.9,-16.3 8.6,-22 5.7,-5.7 13.1,-8.6 22,-8.6 8.9,0 16.3,2.9 22,8.6 5.7,5.7 8.6,13.1 8.6,22 V 45.1 c 26.8,6.4 48.8,20.7 66,43.1 17.2,22.4 25.8,47.5 25.8,75.6 0,28.1 -8.6,53.3 -25.8,75.6 -17.2,22.3 -39.1,36.6 -65.9,43 z"
           inkscape:connector-curvature="0" />
      </g>
    </g>
  </g>
</svg>
