M48
; DRILL file {KiCad 5.1.5+dfsg1-2build2} date mer. 13 janv. 2021 17:57:38
; FORMAT={-:-/ absolute / inch / decimal}
; #@! TF.CreationDate,2021-01-13T17:57:38+01:00
; #@! TF.GenerationSoftware,Kicad,Pcbnew,5.1.5+dfsg1-2build2
; #@! TF.FileFunction,NonPlated,1,2,NPTH
FMAT,2
INCH
T1C0.0256
T2C0.0669
T3C0.1201
T4C0.1575
%
G90
G05
T1
X8.3175Y-3.6711
X8.545Y-3.6711
T2
X12.1687Y-5.5125
X12.5687Y-5.5125
X11.0437Y-6.2625
X11.4437Y-6.2625
X3.6375Y-7.0125
X4.0375Y-7.0125
X2.7Y-7.0125
X3.1Y-7.0125
X7.3875Y-7.0125
X7.7875Y-7.0125
X7.4813Y-4.7625
X7.8812Y-4.7625
X8.0437Y-6.2625
X8.4437Y-6.2625
X2.6062Y-4.0125
X3.0063Y-4.0125
X7.6688Y-5.5125
X8.0687Y-5.5125
X9.3562Y-4.0125
X9.7562Y-4.0125
X11.9812Y-4.7625
X12.3812Y-4.7625
X13.1062Y-6.2625
X13.5062Y-6.2625
X8.6062Y-4.0125
X9.0062Y-4.0125
X5.2313Y-4.7625
X5.6312Y-4.7625
X4.2938Y-6.2625
X4.6937Y-6.2625
X10.6687Y-5.5125
X11.0687Y-5.5125
X4.8563Y-4.0125
X5.2562Y-4.0125
X8.7937Y-6.2625
X9.1937Y-6.2625
X11.4187Y-5.5125
X11.8187Y-5.5125
X2.8875Y-5.5125
X3.2875Y-5.5125
X12.075Y-6.2625
X12.475Y-6.2625
X10.2937Y-6.2625
X10.6937Y-6.2625
X4.6688Y-5.5125
X5.0687Y-5.5125
X7.1063Y-4.0125
X7.5062Y-4.0125
X12.7312Y-4.0125
X13.1312Y-4.0125
X3.3562Y-4.0125
X3.7563Y-4.0125
X5.0438Y-6.2625
X5.4437Y-6.2625
X9.1687Y-5.5125
X9.5687Y-5.5125
X5.7938Y-6.2625
X6.1937Y-6.2625
X9.9187Y-5.5125
X10.3187Y-5.5125
X6.9188Y-5.5125
X7.3187Y-5.5125
X6.7313Y-4.7625
X7.1312Y-4.7625
X8.2312Y-4.7625
X8.6312Y-4.7625
X8.9812Y-4.7625
X9.3812Y-4.7625
X5.4188Y-5.5125
X5.8187Y-5.5125
X10.2937Y-7.0125
X10.6937Y-7.0125
X9.5437Y-6.2625
X9.9437Y-6.2625
X11.4187Y-7.0125
X11.8187Y-7.0125
X3.9187Y-5.5125
X4.3187Y-5.5125
X10.4812Y-4.7625
X10.8812Y-4.7625
X3.5437Y-6.2625
X3.9438Y-6.2625
X10.8562Y-4.0125
X11.2562Y-4.0125
X13.0125Y-5.1375
X13.4125Y-5.1375
X3.7312Y-4.7625
X4.1312Y-4.7625
X2.7937Y-4.7625
X3.1938Y-4.7625
X7.2938Y-6.2625
X7.6937Y-6.2625
X5.6063Y-4.0125
X6.0062Y-4.0125
X12.3562Y-7.0125
X12.7562Y-7.0125
X10.1062Y-4.0125
X10.5062Y-4.0125
X8.4187Y-5.5125
X8.8187Y-5.5125
X4.1063Y-4.0125
X4.5062Y-4.0125
X4.4813Y-4.7625
X4.8812Y-4.7625
X6.5438Y-6.2625
X6.9437Y-6.2625
X6.1688Y-5.5125
X6.5687Y-5.5125
X2.7Y-6.2625
X3.1Y-6.2625
X7.8563Y-4.0125
X8.2562Y-4.0125
X5.9813Y-4.7625
X6.3812Y-4.7625
X9.7312Y-4.7625
X10.1312Y-4.7625
X13.1062Y-7.0125
X13.5062Y-7.0125
X6.3563Y-4.0125
X6.7562Y-4.0125
X13.8562Y-7.0125
X14.2562Y-7.0125
X11.6062Y-4.0125
X12.0062Y-4.0125
X11.2312Y-4.7625
X11.6312Y-4.7625
X4.575Y-7.0125
X4.975Y-7.0125
T3
X5.619Y-6.7369
X9.556Y-6.7369
X12.4627Y-3.7369
X13.3998Y-3.7369
X12.9369Y-4.669
X12.9369Y-5.606
T4
X14.0563Y-7.0125
X11.8063Y-4.0125
X11.4313Y-4.7625
X4.775Y-7.0125
X12.3688Y-5.5125
X11.2438Y-6.2625
X3.8375Y-7.0125
X2.9Y-7.0125
X5.619Y-7.3369
X7.5875Y-7.0125
X9.556Y-7.3369
X7.6812Y-4.7625
X8.2438Y-6.2625
X2.8062Y-4.0125
X7.8687Y-5.5125
X9.5563Y-4.0125
X12.1813Y-4.7625
X13.3063Y-6.2625
X8.8063Y-4.0125
X5.4312Y-4.7625
X4.4937Y-6.2625
X10.8688Y-5.5125
X5.0562Y-4.0125
X8.9938Y-6.2625
X11.6188Y-5.5125
X3.0875Y-5.5125
X12.275Y-6.2625
X10.4938Y-6.2625
X4.8687Y-5.5125
X7.3062Y-4.0125
X12.4627Y-4.3369
X12.9313Y-4.0125
X13.3998Y-4.3369
X3.5562Y-4.0125
X5.2437Y-6.2625
X9.3688Y-5.5125
X5.9937Y-6.2625
X10.1188Y-5.5125
X7.1187Y-5.5125
X6.9312Y-4.7625
X8.4313Y-4.7625
X9.1813Y-4.7625
X5.6187Y-5.5125
X10.4938Y-7.0125
X9.7438Y-6.2625
X11.6188Y-7.0125
X4.1187Y-5.5125
X10.6813Y-4.7625
X3.7437Y-6.2625
X11.0563Y-4.0125
X13.2125Y-5.1375
X13.5369Y-4.669
X13.5369Y-5.606
X3.9312Y-4.7625
X2.9937Y-4.7625
X7.4937Y-6.2625
X5.8062Y-4.0125
X12.5563Y-7.0125
X10.3063Y-4.0125
X8.6188Y-5.5125
X4.3062Y-4.0125
X4.6812Y-4.7625
X6.7437Y-6.2625
X6.3687Y-5.5125
X2.9Y-6.2625
X8.0563Y-4.0125
X6.1812Y-4.7625
X9.9313Y-4.7625
X13.3063Y-7.0125
X6.5562Y-4.0125
T0
M30
