G04 #@! TF.GenerationSoftware,KiCad,Pcbnew,5.1.5+dfsg1-2build2*
G04 #@! TF.CreationDate,2021-01-13T17:57:37+01:00*
G04 #@! TF.ProjectId,suruq-keyboard-pcb,73757275-712d-46b6-9579-626f6172642d,rev?*
G04 #@! TF.SameCoordinates,Original*
G04 #@! TF.FileFunction,Legend,Top*
G04 #@! TF.FilePolarity,Positive*
%FSLAX46Y46*%
G04 Gerber Fmt 4.6, Leading zero omitted, Abs format (unit mm)*
G04 Created by KiCad (PCBNEW 5.1.5+dfsg1-2build2) date 2021-01-13 17:57:37*
%MOMM*%
%LPD*%
G04 APERTURE LIST*
%ADD10C,0.100000*%
%ADD11C,0.120000*%
G04 APERTURE END LIST*
D10*
G36*
X314990001Y-133771573D02*
G01*
X308849022Y-132641141D01*
X309872959Y-134528281D01*
X311428709Y-135984151D01*
X313365459Y-136808990D01*
X313365459Y-164563783D01*
X313820543Y-165727950D01*
X314984710Y-166183033D01*
X316148876Y-165727950D01*
X316603960Y-164563783D01*
X316603960Y-136808990D01*
X318540710Y-135986136D01*
X320096460Y-134528281D01*
X321120397Y-132641141D01*
X321461710Y-130527781D01*
X321120397Y-128412437D01*
X320096460Y-126527281D01*
X318543356Y-125074057D01*
X316609251Y-124251864D01*
X316609251Y-115943947D01*
X316154168Y-114779780D01*
X314990001Y-114324697D01*
X313825834Y-114779780D01*
X313370751Y-115943947D01*
X313370751Y-124251864D01*
X311434001Y-125074718D01*
X309878251Y-126532572D01*
X308851668Y-128419052D01*
X308507709Y-130527781D01*
X308849022Y-132641141D01*
X314990001Y-133771573D01*
X312709293Y-132808490D01*
X311746209Y-130527781D01*
X312709293Y-128247073D01*
X314990001Y-127283989D01*
X317270710Y-128247073D01*
X318233793Y-130527781D01*
X317270710Y-132808490D01*
X314990001Y-133771573D01*
G37*
G36*
X295543125Y-153218449D02*
G01*
X289407437Y-152095293D01*
X290431375Y-153980449D01*
X291987125Y-155436319D01*
X293923875Y-156261158D01*
X293923875Y-164569075D01*
X294378958Y-165733242D01*
X295543125Y-166188325D01*
X296707292Y-165733242D01*
X297162375Y-164569075D01*
X297162375Y-156261158D01*
X299099125Y-155438303D01*
X300654875Y-153980449D01*
X301678813Y-152093308D01*
X302020125Y-149979949D01*
X301678813Y-147864605D01*
X300654875Y-145979449D01*
X299099125Y-144523579D01*
X297162375Y-143698740D01*
X297162375Y-115943947D01*
X296707292Y-114779780D01*
X295543125Y-114324697D01*
X294378958Y-114779780D01*
X293923875Y-115943947D01*
X293923875Y-143698740D01*
X291987125Y-144521594D01*
X290431375Y-145979449D01*
X289407437Y-147866589D01*
X289066125Y-149979949D01*
X289407437Y-152095293D01*
X295543125Y-153218449D01*
X293262417Y-152255366D01*
X292299333Y-149974657D01*
X293262417Y-147693949D01*
X295543125Y-146730865D01*
X297823833Y-147693949D01*
X298786917Y-149974657D01*
X297823833Y-152255366D01*
X295543125Y-153218449D01*
G37*
G36*
X276096249Y-143497657D02*
G01*
X269955269Y-142369209D01*
X270979207Y-144254365D01*
X272534957Y-145710235D01*
X274471707Y-146535074D01*
X274471707Y-164563783D01*
X274926790Y-165727950D01*
X276090957Y-166183033D01*
X277255124Y-165727950D01*
X277710207Y-164563783D01*
X277710207Y-146535074D01*
X279646957Y-145712220D01*
X281202707Y-144254365D01*
X282231937Y-142367225D01*
X282578541Y-140253865D01*
X282237228Y-138138521D01*
X281213291Y-136253365D01*
X279654895Y-134797495D01*
X277715499Y-133972656D01*
X277715499Y-115943947D01*
X277260416Y-114779780D01*
X276096249Y-114324697D01*
X274932082Y-114779780D01*
X274476999Y-115943947D01*
X274476999Y-133972656D01*
X272540249Y-134795510D01*
X270984498Y-136253365D01*
X269957915Y-138140505D01*
X269613957Y-140253865D01*
X269955269Y-142369209D01*
X276096249Y-143497657D01*
X273815540Y-142534573D01*
X272857749Y-140253865D01*
X273820832Y-137973157D01*
X276101540Y-137010073D01*
X278382249Y-137973157D01*
X279340041Y-140253865D01*
X278376957Y-142534573D01*
X276096249Y-143497657D01*
G37*
G36*
X241775811Y-129521974D02*
G01*
X242168553Y-128033692D01*
X243140069Y-127868328D01*
X253806084Y-127868328D01*
X254984307Y-128281739D01*
X255377048Y-129521974D01*
X254901626Y-130617513D01*
X253723402Y-131072265D01*
X245207126Y-131072265D01*
X243946222Y-139299153D01*
X245847915Y-138663534D01*
X247749608Y-138451661D01*
X249974277Y-138744925D01*
X251873386Y-139624716D01*
X253446934Y-141091034D01*
X254694920Y-143143880D01*
X255485568Y-145515829D01*
X255666436Y-147794760D01*
X255625094Y-148683593D01*
X255459730Y-150502604D01*
X255123834Y-151665324D01*
X254570897Y-153003744D01*
X253583876Y-154688396D01*
X252317803Y-156021648D01*
X250386253Y-157284849D01*
X248257185Y-158042770D01*
X245930597Y-158295411D01*
X244183934Y-158161052D01*
X242333918Y-157757976D01*
X240499403Y-157075846D01*
X239005954Y-156145671D01*
X237936253Y-154920939D01*
X237331639Y-153355143D01*
X237703709Y-152238932D01*
X238654556Y-151784179D01*
X240204847Y-152507650D01*
X241952660Y-153839754D01*
X243806121Y-154639016D01*
X245765233Y-154905437D01*
X248142348Y-154440349D01*
X250023371Y-153045085D01*
X251232599Y-151003866D01*
X251635675Y-148600911D01*
X251357771Y-145920627D01*
X250524057Y-143915582D01*
X249134535Y-142585776D01*
X247847792Y-142089682D01*
X246344009Y-141924317D01*
X245083102Y-142048341D01*
X243264092Y-142544434D01*
X242809339Y-142689127D01*
X242292576Y-142854492D01*
X241217707Y-143061197D01*
X239956800Y-141758953D01*
X240039483Y-141200846D01*
X241775811Y-129521974D01*
G37*
G36*
X225962824Y-128199057D02*
G01*
X227265069Y-127599609D01*
X228381280Y-128157716D01*
X228753350Y-129439291D01*
X227533787Y-131382325D01*
X226892998Y-131919760D01*
X225714777Y-132994630D01*
X224262669Y-134508748D01*
X223130954Y-136115885D01*
X220877863Y-139753906D01*
X226314223Y-142115520D01*
X224309178Y-141758953D01*
X222355809Y-142074179D01*
X220712499Y-143019856D01*
X219544611Y-144658000D01*
X218934829Y-147050619D01*
X218769465Y-148518229D01*
X219105361Y-150828166D01*
X220113051Y-152838380D01*
X221864882Y-154326661D01*
X224061131Y-154822755D01*
X226396905Y-154357667D01*
X228071222Y-152962403D01*
X229125422Y-150786825D01*
X229394139Y-148228841D01*
X229352798Y-147298666D01*
X228929051Y-144999064D01*
X227823176Y-143185221D01*
X226314223Y-142115520D01*
X220877863Y-139753906D01*
X223353163Y-138839234D01*
X225611423Y-138534343D01*
X227890355Y-138927084D01*
X229890233Y-140105307D01*
X231456028Y-141789958D01*
X232515394Y-143908692D01*
X233151015Y-146249634D01*
X233362889Y-148683593D01*
X233185897Y-150675720D01*
X232654922Y-152497314D01*
X231769962Y-154148376D01*
X230531019Y-155628906D01*
X228599469Y-157110297D01*
X226442840Y-157999132D01*
X224061131Y-158295411D01*
X221590997Y-157928508D01*
X219348241Y-156827799D01*
X217503392Y-155117309D01*
X216185642Y-152962403D01*
X215286472Y-150497436D01*
X214986749Y-148187499D01*
X215028090Y-147546713D01*
X215214126Y-145210937D01*
X215467134Y-143220775D01*
X215994647Y-141235573D01*
X216796665Y-139255333D01*
X217873189Y-137280053D01*
X219224217Y-135309734D01*
X220815851Y-133346030D01*
X222469497Y-131506349D01*
X224185154Y-129790691D01*
X225962824Y-128199057D01*
G37*
G36*
X202129652Y-137211427D02*
G01*
X202667087Y-135826497D01*
X203948663Y-135309734D01*
X205250910Y-135826497D01*
X205809014Y-137211427D01*
X205809014Y-139133789D01*
X206940729Y-137598999D01*
X208062108Y-136467286D01*
X209483209Y-135537110D01*
X210893975Y-135227052D01*
X212402928Y-135743815D01*
X213002374Y-137128744D01*
X212154881Y-138658367D01*
X210418553Y-139340494D01*
X208806249Y-139836588D01*
X207141118Y-141235297D01*
X206142040Y-143116319D01*
X205809014Y-145479656D01*
X205809014Y-156393718D01*
X205364597Y-157819988D01*
X204031345Y-158295411D01*
X202729100Y-157757976D01*
X202129652Y-156311036D01*
X202129652Y-137211427D01*
G37*
G36*
X183484796Y-136880697D02*
G01*
X190556430Y-138667554D01*
X188797134Y-138451661D01*
X187037838Y-138653773D01*
X185535777Y-139260110D01*
X184290949Y-140270671D01*
X183245936Y-141722205D01*
X182618929Y-143430972D01*
X182409926Y-145396973D01*
X194812270Y-145396973D01*
X194635422Y-143499874D01*
X194104877Y-141832448D01*
X193220637Y-140394695D01*
X192030931Y-139315232D01*
X190556430Y-138667554D01*
X183484796Y-136880697D01*
X185103991Y-135962005D01*
X186819649Y-135410790D01*
X188631770Y-135227052D01*
X190875767Y-135457735D01*
X192861795Y-136149786D01*
X194589855Y-137303203D01*
X196059946Y-138917988D01*
X197272069Y-140994140D01*
X197984056Y-142780997D01*
X198411247Y-144586227D01*
X198553645Y-146409830D01*
X198031712Y-147774088D01*
X196465915Y-148228841D01*
X182409926Y-148228841D01*
X182624383Y-150227427D01*
X183267755Y-151903036D01*
X184340041Y-153255667D01*
X185841241Y-154285320D01*
X187484552Y-154889933D01*
X189272556Y-155091471D01*
X191415406Y-154831940D01*
X193434232Y-154053349D01*
X195329035Y-152755697D01*
X196734634Y-152073567D01*
X197711318Y-152466308D01*
X198036879Y-153644531D01*
X197499444Y-155008788D01*
X195861302Y-156352376D01*
X193592707Y-157447916D01*
X191293105Y-158083537D01*
X189065850Y-158295411D01*
X186635767Y-158057699D01*
X184492487Y-157344564D01*
X182636012Y-156156006D01*
X181066340Y-154492025D01*
X179939794Y-152662680D01*
X179205989Y-150729981D01*
X178756403Y-148678426D01*
X178606541Y-146781900D01*
X178647882Y-146616536D01*
X178817840Y-144765372D01*
X179272592Y-142932581D01*
X180012140Y-141118164D01*
X180958393Y-139443848D01*
X182115945Y-138031359D01*
X183484796Y-136880697D01*
G37*
G36*
X159279557Y-146699218D02*
G01*
X159475513Y-156301114D01*
X158008729Y-154749994D01*
X156819757Y-152755697D01*
X156119255Y-150879268D01*
X155698954Y-148915563D01*
X155558854Y-146864583D01*
X155725510Y-144545603D01*
X156225479Y-142404908D01*
X157058761Y-140442495D01*
X158225356Y-138658367D01*
X159667129Y-137175253D01*
X161222590Y-136115885D01*
X163051936Y-135449260D01*
X165067317Y-135227052D01*
X167444432Y-135566968D01*
X169477038Y-136586716D01*
X171165135Y-138286296D01*
X171247817Y-127186198D01*
X171759414Y-125790934D01*
X173087499Y-125325846D01*
X174513769Y-125811604D01*
X174989192Y-127268880D01*
X174989192Y-156393718D01*
X174513769Y-157819988D01*
X173087499Y-158295411D01*
X171847265Y-157757976D01*
X171247817Y-156435059D01*
X171247817Y-155256835D01*
X169823844Y-156944933D01*
X167922151Y-157957791D01*
X165542739Y-158295411D01*
X163242518Y-158073822D01*
X161220109Y-157409057D01*
X159475513Y-156301114D01*
X159279557Y-146699218D01*
X159424250Y-148784649D01*
X159858332Y-150631220D01*
X160581801Y-152238932D01*
X161789881Y-153823676D01*
X163319504Y-154774522D01*
X165170668Y-155091471D01*
X167204137Y-154818878D01*
X168860366Y-154001098D01*
X170139358Y-152638133D01*
X171041111Y-150729981D01*
X171552709Y-148854126D01*
X171723241Y-146781900D01*
X171521703Y-144368612D01*
X170917088Y-142379070D01*
X169966242Y-140751262D01*
X168726007Y-139505859D01*
X167196385Y-138715210D01*
X165501398Y-138451661D01*
X163610040Y-138746216D01*
X162070083Y-139629882D01*
X160850519Y-141014811D01*
X160003025Y-142813150D01*
X159460424Y-144818196D01*
X159279557Y-146699218D01*
G37*
G36*
X135715104Y-146781900D02*
G01*
X136151769Y-156342042D01*
X134619562Y-154822755D01*
X133471054Y-153108388D01*
X132650691Y-151210571D01*
X132158473Y-149129302D01*
X131994401Y-146864583D01*
X132137946Y-144532827D01*
X132568583Y-142443377D01*
X133286311Y-140596232D01*
X134291131Y-138991392D01*
X135583042Y-137628857D01*
X137162044Y-136508627D01*
X139409968Y-135547446D01*
X141688898Y-135227052D01*
X144084388Y-135566968D01*
X146199677Y-136586716D01*
X148034765Y-138286296D01*
X148117447Y-137046062D01*
X148675551Y-135702473D01*
X149853775Y-135227052D01*
X151114679Y-135702473D01*
X151590104Y-137128744D01*
X151590104Y-156393718D01*
X151156022Y-157819988D01*
X149853775Y-158295411D01*
X148613541Y-157799317D01*
X148117447Y-156559083D01*
X148117447Y-154905437D01*
X146323700Y-156788756D01*
X144332435Y-157918747D01*
X142143651Y-158295411D01*
X139913813Y-158078370D01*
X137916519Y-157427247D01*
X136151769Y-156342042D01*
X135715104Y-146781900D01*
X135884344Y-149071166D01*
X136392065Y-151019368D01*
X137238266Y-152626505D01*
X138422947Y-153892577D01*
X139962905Y-154791747D01*
X141688898Y-155091471D01*
X143744472Y-154804379D01*
X145391228Y-153943106D01*
X146629166Y-152507650D01*
X147410054Y-150879268D01*
X147878587Y-148970685D01*
X148034765Y-146781900D01*
X147852606Y-144355692D01*
X147306127Y-142327392D01*
X146395330Y-140697001D01*
X145120213Y-139464518D01*
X143621596Y-138704875D01*
X141936945Y-138451661D01*
X140074297Y-138720378D01*
X138537785Y-139526530D01*
X137327408Y-140870117D01*
X136665949Y-142048340D01*
X136128515Y-143474609D01*
X135818457Y-145066243D01*
X135715104Y-146781900D01*
G37*
G36*
X115830013Y-129935385D02*
G01*
X116284765Y-128405763D01*
X117400976Y-127868328D01*
X128790461Y-127868328D01*
X129829158Y-128323080D01*
X130175390Y-129687338D01*
X129761979Y-130865559D01*
X128439062Y-131340984D01*
X119509375Y-131340984D01*
X119509375Y-141283528D01*
X127550226Y-141283528D01*
X128790461Y-141758953D01*
X129203872Y-143061197D01*
X128811131Y-144332438D01*
X127632909Y-144756184D01*
X119509375Y-144756184D01*
X119509375Y-156311036D01*
X119044287Y-157799317D01*
X117649023Y-158295411D01*
X116429458Y-157799317D01*
X115830013Y-156393718D01*
X115830013Y-129935385D01*
G37*
D11*
X357350000Y-115890000D02*
X358100000Y-116640000D01*
X356600000Y-116640000D02*
X357350000Y-115890000D01*
X355850000Y-115890000D02*
X358850000Y-115890000D01*
X357350000Y-160890000D02*
X358100000Y-160140000D01*
X356600000Y-160140000D02*
X357350000Y-160890000D01*
X355850000Y-160890000D02*
X358850000Y-160890000D01*
X357350000Y-160890000D02*
X357350000Y-115890000D01*
X356100000Y-169315000D02*
X355600000Y-168815000D01*
X355100000Y-169315000D02*
X356100000Y-169315000D01*
X355600000Y-168815000D02*
X355100000Y-169315000D01*
X356423000Y-108270000D02*
X361970000Y-108270000D01*
X352730000Y-108270000D02*
X354777000Y-108270000D01*
X359923000Y-168510000D02*
X361970000Y-168510000D01*
X356775000Y-168510000D02*
X358278000Y-168510000D01*
X352730000Y-168510000D02*
X354425000Y-168510000D01*
X361970000Y-111654000D02*
X361970000Y-108270000D01*
X361970000Y-161854000D02*
X361970000Y-114925000D01*
X361970000Y-168510000D02*
X361970000Y-165125000D01*
X352730000Y-112854000D02*
X352730000Y-108270000D01*
X352730000Y-160654000D02*
X352730000Y-116125000D01*
X352730000Y-168510000D02*
X352730000Y-163925000D01*
X360543750Y-100925000D02*
G75*
G03X360543750Y-100925000I-3000000J0D01*
G01*
X359543750Y-95025000D02*
X363643750Y-95025000D01*
X363643750Y-106825000D02*
X359543750Y-106825000D01*
X355543750Y-106825000D02*
X351443750Y-106825000D01*
X355543750Y-95125000D02*
X351443750Y-95125000D01*
X351443750Y-95125000D02*
X351443750Y-106825000D01*
X350043750Y-97125000D02*
X349743750Y-96825000D01*
X349743750Y-96825000D02*
X350343750Y-96825000D01*
X350343750Y-96825000D02*
X350043750Y-97125000D01*
X363643750Y-95025000D02*
X363643750Y-97625000D01*
X363643750Y-99625000D02*
X363643750Y-102225000D01*
X363643750Y-104225000D02*
X363643750Y-106825000D01*
X357543750Y-100425000D02*
X357543750Y-101425000D01*
X357043750Y-100925000D02*
X358043750Y-100925000D01*
M02*
