M48
; DRILL file {KiCad 5.1.5+dfsg1-2build2} date mer. 13 janv. 2021 17:57:38
; FORMAT={-:-/ absolute / inch / decimal}
; #@! TF.CreationDate,2021-01-13T17:57:38+01:00
; #@! TF.GenerationSoftware,Kicad,Pcbnew,5.1.5+dfsg1-2build2
; #@! TF.FileFunction,Plated,1,2,PTH
FMAT,2
INCH
T1C0.0157
T2C0.0236
T3C0.0394
T4C0.0472
T5C0.0591
T6C0.0669
%
G90
G05
T1
X2.4978Y-3.7042
X2.4978Y-5.0428
X2.4978Y-6.3814
X2.8128Y-7.405
X3.1671Y-4.3735
X3.1671Y-5.7121
X3.482Y-6.7357
X3.8364Y-3.7042
X3.8757Y-5.0034
X4.1513Y-6.0664
X4.3088Y-7.2475
X4.545Y-4.3342
X4.8206Y-5.3971
X5.0568Y-6.4995
X5.2537Y-3.7042
X5.4899Y-7.405
X5.608Y-4.6885
X5.7655Y-5.8696
X6.1986Y-6.7751
X6.2773Y-4.0192
X6.4348Y-5.2003
X6.9072Y-6.1452
X7.1041Y-7.2869
X7.1435Y-4.4916
X7.5372Y-5.4365
X7.6946Y-3.7042
X7.7028Y-7.4096
X7.735Y-7.3867
X7.7634Y-7.3594
X7.7911Y-7.331
X7.8189Y-7.3031
X7.8915Y-6.4995
X7.9918Y-5.0633
X8.0207Y-5.0315
X8.0207Y-5.0984
X8.1004Y-4.3091
X8.1024Y-6.5197
X8.1102Y-5.0315
X8.1102Y-5.0984
X8.1339Y-4.4173
X8.1378Y-6.4724
X8.1535Y-4.2785
X8.1535Y-4.3425
X8.1654Y-5.7874
X8.1732Y-5.8819
X8.2087Y-5.0315
X8.2087Y-5.0984
X8.2205Y-5.8465
X8.2205Y-5.9173
X8.2402Y-5.063
X8.2441Y-4.4242
X8.2441Y-4.4882
X8.2517Y-6.9131
X8.2869Y-6.9533
X8.3031Y-5.6496
X8.3051Y-3.8543
X8.3071Y-6.5945
X8.3071Y-7.0315
X8.3246Y-4.846
X8.3425Y-7.2559
X8.3465Y-3.5197
X8.3504Y-4.2746
X8.3504Y-4.3396
X8.3504Y-7.1102
X8.3543Y-5.7008
X8.3701Y-5.8071
X8.3819Y-3.8858
X8.3819Y-5.5787
X8.3976Y-6.6811
X8.4213Y-5.8583
X8.4291Y-4.2785
X8.4291Y-4.3425
X8.4331Y-5.6299
X8.437Y-4.4281
X8.437Y-4.4921
X8.4409Y-3.622
X8.4685Y-3.8858
X8.4803Y-4.4567
X8.4803Y-5.6969
X8.5157Y-3.5197
X8.5295Y-5.6988
X8.5315Y-5.748
X8.5315Y-6.5394
X8.5404Y-4.311
X8.5492Y-3.8543
X8.5547Y-6.4417
X8.5787Y-6.6811
X8.5866Y-6.4094
X8.5866Y-6.4764
X8.6789Y-5.8302
X8.7183Y-7.3656
X8.7874Y-6.4724
X8.7874Y-6.4055
X8.813Y-6.6256
X8.8169Y-6.4425
X8.8642Y-6.5961
X8.8757Y-3.9011
X8.9488Y-7.3189
X9.0195Y-7.3573
X9.0569Y-7.377
X9.0748Y-6.689
X9.0787Y-7.1142
X9.0854Y-7.4051
X9.0906Y-6.5984
X9.1654Y-7.1969
X9.1929Y-6.8878
X9.2717Y-7.1732
X9.274Y-6.6441
X9.3482Y-5.1609
X9.3858Y-6.5039
X9.3898Y-6.4252
X9.5965Y-6.8768
X9.5965Y-6.9921
X9.6168Y-7.1742
X9.6538Y-7.1878
X9.6898Y-7.2059
X9.7047Y-6.689
X9.86Y-4.2554
X9.9387Y-7.2475
X10.0962Y-5.7515
X10.1181Y-7.4242
X10.4278Y-6.6112
X10.5236Y-6.5906
X10.5687Y-4.8853
X10.5709Y-6.5945
X10.6142Y-6.5945
X10.6474Y-6.5389
X10.6693Y-6.7874
X10.7077Y-6.7999
X10.7261Y-3.7042
X10.7449Y-6.8126
X10.7766Y-6.8377
X10.8465Y-6.6726
X10.8898Y-6.6417
X10.9126Y-6.7908
X10.9449Y-6.7638
X11.0625Y-7.0625
X11.1562Y-7.0625
X11.2379Y-5.5546
X11.2773Y-7.2475
X11.3954Y-4.3735
X11.7891Y-6.342
X12.0647Y-3.7042
X12.1041Y-5.0034
X12.4584Y-7.0901
X12.6169Y-6.6283
X12.6421Y-6.6618
X12.6839Y-6.7018
X12.6946Y-5.7515
X12.7118Y-6.6272
X12.7146Y-6.7303
X12.7484Y-6.6724
X12.8128Y-4.2948
X12.829Y-6.7303
X13.1177Y-6.5571
X13.2852Y-6.4995
X13.4033Y-5.0428
X13.5608Y-3.7042
X13.7183Y-7.405
X13.9545Y-5.8302
X14.2694Y-4.3342
X14.3876Y-6.7357
T3
X13.7812Y-3.875
X13.7812Y-3.9734
X13.7812Y-4.0719
X14.3521Y-3.875
X14.3521Y-4.0719
X10.8669Y-6.8673
X10.8669Y-6.9673
X10.8669Y-7.0673
X10.9669Y-6.8673
X10.9669Y-6.9673
X10.9669Y-7.0673
T4
X14.0Y-4.2969
X14.0Y-6.6
X14.1378Y-6.6
T5
X2.9375Y-5.4125
X3.1875Y-5.3125
X12.125Y-6.1625
X12.375Y-6.0625
X10.3438Y-6.1625
X10.5938Y-6.0625
X4.7188Y-5.4125
X4.9688Y-5.3125
X7.1562Y-3.9125
X7.4062Y-3.8125
X12.7812Y-3.9125
X13.0312Y-3.8125
X3.4062Y-3.9125
X3.6562Y-3.8125
X5.0938Y-6.1625
X5.3438Y-6.0625
X9.2188Y-5.4125
X9.4688Y-5.3125
X5.8438Y-6.1625
X6.0938Y-6.0625
X9.9688Y-5.4125
X10.2188Y-5.3125
X6.9688Y-5.4125
X7.2188Y-5.3125
X6.7812Y-4.6625
X7.0312Y-4.5625
X8.2812Y-4.6625
X8.5312Y-4.5625
X9.0312Y-4.6625
X9.2812Y-4.5625
X5.4688Y-5.4125
X5.7188Y-5.3125
X10.3438Y-6.9125
X10.5938Y-6.8125
X9.5938Y-6.1625
X9.8438Y-6.0625
X11.4688Y-6.9125
X11.7188Y-6.8125
X3.9688Y-5.4125
X4.2188Y-5.3125
X10.5312Y-4.6625
X10.7812Y-4.5625
X3.5938Y-6.1625
X3.8438Y-6.0625
X10.9062Y-3.9125
X11.1562Y-3.8125
X13.0625Y-5.0375
X13.3125Y-4.9375
X3.7812Y-4.6625
X4.0312Y-4.5625
X2.8438Y-4.6625
X3.0938Y-4.5625
X7.3438Y-6.1625
X7.5938Y-6.0625
X5.6562Y-3.9125
X5.9062Y-3.8125
X12.4062Y-6.9125
X12.6562Y-6.8125
X10.1562Y-3.9125
X10.4062Y-3.8125
X8.4688Y-5.4125
X8.7188Y-5.3125
X4.1562Y-3.9125
X4.4062Y-3.8125
X4.5312Y-4.6625
X4.7812Y-4.5625
X6.5938Y-6.1625
X6.8438Y-6.0625
X6.2188Y-5.4125
X6.4688Y-5.3125
X2.75Y-6.1625
X3.0Y-6.0625
X7.9062Y-3.9125
X8.1562Y-3.8125
X6.0312Y-4.6625
X6.2812Y-4.5625
X9.7812Y-4.6625
X10.0312Y-4.5625
X13.1562Y-6.9125
X13.4062Y-6.8125
X6.4062Y-3.9125
X6.6562Y-3.8125
X13.9062Y-6.9125
X14.1562Y-6.8125
X11.6562Y-3.9125
X11.9062Y-3.8125
X11.2812Y-4.6625
X11.5312Y-4.5625
X4.625Y-6.9125
X4.875Y-6.8125
X12.2188Y-5.4125
X12.4688Y-5.3125
X11.0938Y-6.1625
X11.3438Y-6.0625
X3.6875Y-6.9125
X3.9375Y-6.8125
X2.75Y-6.9125
X3.0Y-6.8125
X7.4375Y-6.9125
X7.6875Y-6.8125
X7.5312Y-4.6625
X7.7812Y-4.5625
X8.0938Y-6.1625
X8.3438Y-6.0625
X2.6562Y-3.9125
X2.9062Y-3.8125
X7.7188Y-5.4125
X7.9688Y-5.3125
X9.4062Y-3.9125
X9.6562Y-3.8125
X12.0312Y-4.6625
X12.2812Y-4.5625
X13.1562Y-6.1625
X13.4062Y-6.0625
X8.6562Y-3.9125
X8.9062Y-3.8125
X5.2812Y-4.6625
X5.5312Y-4.5625
X4.3438Y-6.1625
X4.5938Y-6.0625
X10.7188Y-5.4125
X10.9688Y-5.3125
X4.9062Y-3.9125
X5.1562Y-3.8125
X8.8438Y-6.1625
X9.0938Y-6.0625
X11.4688Y-5.4125
X11.7188Y-5.3125
T6
X13.9035Y-4.5075
X13.9035Y-6.3894
X14.2343Y-4.4602
X14.2343Y-6.4366
T2
G00X8.2612Y-3.5156
M15
G01X8.2612Y-3.5392
M16
G05
G00X8.2612Y-3.6703
M15
G01X8.2612Y-3.7136
M16
G05
G00X8.6013Y-3.5156
M15
G01X8.6013Y-3.5392
M16
G05
G00X8.6013Y-3.6703
M15
G01X8.6013Y-3.7136
M16
G05
T5
G00X14.0509Y-3.753
M15
G01X14.1021Y-3.753
M16
G05
G00X14.0509Y-4.1939
M15
G01X14.1021Y-4.1939
M16
G05
T0
M30
